<svg width="37" height="30" viewBox="0 0 37 30" fill="none" xmlns="http://www.w3.org/2000/svg">
<g clip-path="url(#clip0_1_2273)">
<path fill-rule="evenodd" clip-rule="evenodd" d="M0.500629 0.824159C0.55106 0.576733 0.655071 0.38289 1.11683 0.181166C2.07029 -0.238039 4.16789 0.20323 4.31761 0.215838C5.91721 0.529454 7.49002 0.978603 9.03131 1.53019C11.3165 2.34811 13.5275 3.3914 15.6677 4.48669C17.9355 5.67339 20.1135 6.9909 22.1244 8.51327C24.159 10.0546 26.0359 11.7802 27.738 13.6588C28.7608 14.7888 29.7221 15.9707 30.592 17.222C32.5872 20.095 34.1521 23.2485 35.3609 26.6274C35.4034 26.7251 35.3577 26.8386 35.26 26.8811C35.1623 26.9237 35.0489 26.8811 35.0047 26.7818C33.3862 23.6866 31.38 20.9208 29.1485 18.3457C28.1934 17.2457 27.2053 16.1819 26.1715 15.1607C24.4552 13.4681 22.6082 11.9126 20.6588 10.4659C18.7298 9.03334 16.7173 7.69062 14.5787 6.52126C12.8924 5.57568 11.1557 4.67266 9.37172 3.88152C7.60349 3.09827 5.79586 2.42061 3.92992 1.95728L0.694473 1.00697C0.560516 0.9329 0.483292 0.896653 0.49905 0.825735" fill="black"/>
<path fill-rule="evenodd" clip-rule="evenodd" d="M34.2641 15.3262C34.2421 14.6012 34.8929 14.0134 35.6037 14.1615C35.6604 14.1741 35.7014 14.1868 35.7172 14.2025C35.8574 14.3333 35.9362 14.5949 36.0639 14.9527C36.1742 15.2647 36.2593 15.6272 36.3192 16.0259C36.4862 17.1149 36.4642 18.3189 36.4783 18.4639C36.5571 20.5978 36.9905 23.1193 37.0079 25.4706C37.0142 26.6069 36.9243 27.7085 36.6769 28.7187C36.6281 28.9125 36.5414 29.1537 36.4153 29.3459C36.3081 29.5098 36.1742 29.6485 36.0229 29.7525C35.6809 29.9889 35.2617 30.0661 34.7999 29.9369C34.3335 29.8077 33.7062 29.264 33.484 29.089C32.5274 28.3263 31.5487 27.6155 30.5732 26.9158C29.6529 26.2539 28.712 25.6345 27.7853 24.9837C26.3843 24.0018 25.0337 22.9901 23.5476 22.065C23.3206 21.9562 23.2277 21.6836 23.3364 21.4551C23.4467 21.2281 23.7194 21.1336 23.9463 21.2439C25.9557 21.9767 27.8941 22.7111 29.7222 23.7213C31.4636 24.6827 33.0617 25.8835 34.6691 27.1254C34.7385 26.5896 34.7669 26.0348 34.7716 25.4675C34.7905 23.1382 34.4044 20.6356 34.365 18.5254L34.2673 15.3246L34.2641 15.3262Z" fill="black"/>
</g>
<defs>
<clipPath id="clip0_1_2273">
<rect width="36.5087" height="30" fill="white" transform="matrix(-1 0 0 1 37.0078 -6.10352e-05)"/>
</clipPath>
</defs>
</svg>
