<svg width="42" height="48" viewBox="0 0 42 48" fill="none" xmlns="http://www.w3.org/2000/svg">
<g clip-path="url(#clip0_1_2212)">
<path d="M31.5 4.5C31.5 2.01562 29.4844 0 27 0C24.5156 0 22.5 2.01562 22.5 4.5C22.5 6.98438 24.5156 9 27 9C29.4844 9 31.5 6.98438 31.5 4.5ZM13.2844 16.4531C14.2125 15.525 15.4781 15 16.8 15C16.9781 15 17.1562 15.0094 17.325 15.0281L14.4 23.8125C13.5281 26.4375 14.5594 29.325 16.9125 30.7969L24.9937 35.85L22.6125 44.175C22.1531 45.7688 23.0812 47.4281 24.675 47.8875C26.2687 48.3469 27.9281 47.4187 28.3875 45.825L31.0781 36.4125C31.6312 34.4813 30.8344 32.4188 29.1375 31.3594L23.8125 28.0312L26.7094 20.3063L27.1875 21.4594C28.5937 24.8156 31.8656 27 35.5031 27H37.5C39.1594 27 40.5 25.6594 40.5 24C40.5 22.3406 39.1594 21 37.5 21H35.5031C34.2937 21 33.1969 20.2688 32.7375 19.1531L32.1469 17.7469C30.7781 14.4563 28.0125 11.9437 24.6 10.8937L20.0344 9.4875C18.9937 9.16875 17.9062 9 16.8094 9C13.9031 9 11.1094 10.1531 9.05625 12.2156L6.88125 14.3812C5.70937 15.5531 5.70937 17.4562 6.88125 18.6281C8.05312 19.8 9.95625 19.8 11.1281 18.6281L13.2937 16.4625L13.2844 16.4531ZM10.05 33H4.5C2.84062 33 1.5 34.3406 1.5 36C1.5 37.6594 2.84062 39 4.5 39H11.025C12.8062 39 14.4187 37.95 15.1406 36.3281L16.2187 33.9L15.3281 33.3375C13.6875 32.3156 12.4687 30.825 11.775 29.1281L10.05 33Z" fill="#0B0A0C"/>
</g>
<defs>
<clipPath id="clip0_1_2212">
<rect width="42" height="48" fill="white"/>
</clipPath>
</defs>
</svg>
