<svg width="40" height="46" viewBox="0 0 40 46" fill="none" xmlns="http://www.w3.org/2000/svg">
<g clip-path="url(#clip0_0_320)">
<path d="M14.1031 0.484862C14.7937 -0.170997 15.8649 -0.162013 16.5554 0.493846C18.9989 2.8208 21.2919 5.32744 23.4344 8.04072C24.4082 6.74697 25.5148 5.33642 26.71 4.18642C27.4094 3.52158 28.4895 3.52158 29.1889 4.19541C32.2521 7.16025 34.8461 11.0774 36.6698 14.797C38.467 18.4626 39.6622 22.2091 39.6622 24.8505C39.6622 36.3146 30.8268 45.9997 19.8311 45.9997C8.71152 45.9997 0 36.3056 0 24.8415C0 21.3915 1.57587 17.1778 4.01934 13.0091C6.48938 8.77744 9.97753 4.36611 14.1031 0.484862ZM19.9816 37.3747C22.2215 37.3747 24.2046 36.7458 26.0726 35.488C29.7998 32.8466 30.8002 27.5638 28.5603 23.413C28.3125 22.9099 28.0646 22.4067 27.6927 21.9036L23.213 27.1864C23.213 27.1864 16.0065 17.8786 15.5019 17.2497C11.7836 21.9036 9.91556 24.545 9.91556 27.5638C9.91556 33.7271 14.3953 37.3747 19.9816 37.3747Z" fill="#0B0A0C"/>
</g>
<defs>
<clipPath id="clip0_0_320">
<rect width="39.6622" height="46" fill="white"/>
</clipPath>
</defs>
</svg>
