<svg width="48" height="48" viewBox="0 0 48 48" fill="none" xmlns="http://www.w3.org/2000/svg">
<path d="M4.4625 29.206L21.4031 45.0216C22.1063 45.6778 23.0344 46.0435 24 46.0435C24.9656 46.0435 25.8938 45.6778 26.5969 45.0216L43.5375 29.206C46.3875 26.5528 48 22.831 48 18.9403V18.3966C48 11.8435 43.2656 6.25597 36.8063 5.17785C32.5312 4.46535 28.1812 5.86222 25.125 8.91847L24 10.0435L22.875 8.91847C19.8188 5.86222 15.4688 4.46535 11.1938 5.17785C4.73438 6.25597 0 11.8435 0 18.3966V18.9403C0 22.831 1.6125 26.5528 4.4625 29.206Z" fill="#0B0A0C"/>
</svg>
