<svg width="46" height="46" viewBox="0 0 46 46" fill="none" xmlns="http://www.w3.org/2000/svg">
<path d="M24.2039 0.260547C23.8266 0.0898438 23.4223 0 23 0C22.5778 0 22.1735 0.0898438 21.7961 0.260547L4.87856 7.43906C2.90199 8.27461 1.42856 10.2242 1.43754 12.5781C1.48246 21.4906 5.14809 37.7973 20.6282 45.2094C22.1286 45.9281 23.8715 45.9281 25.3719 45.2094C40.852 37.7973 44.5176 21.4906 44.5625 12.5781C44.5715 10.2242 43.0981 8.27461 41.1215 7.43906L24.2039 0.260547ZM23 10.0625C23.7907 10.0625 24.4375 10.7094 24.4375 11.5C24.4375 14.4648 28.0223 15.9473 30.1157 13.8539C30.6727 13.2969 31.5891 13.2969 32.1461 13.8539C32.7032 14.4109 32.7032 15.3273 32.1461 15.8844C30.0528 17.9777 31.5352 21.5625 34.5 21.5625C35.2907 21.5625 35.9375 22.2094 35.9375 23C35.9375 23.7906 35.2907 24.4375 34.5 24.4375C31.5352 24.4375 30.0528 28.0223 32.1461 30.1156C32.7032 30.6727 32.7032 31.5891 32.1461 32.1461C31.5891 32.7031 30.6727 32.7031 30.1157 32.1461C28.0223 30.0527 24.4375 31.5352 24.4375 34.5C24.4375 35.2906 23.7907 35.9375 23 35.9375C22.2094 35.9375 21.5625 35.2906 21.5625 34.5C21.5625 31.5352 17.9778 30.0527 15.8844 32.1461C15.3274 32.7031 14.411 32.7031 13.8539 32.1461C13.2969 31.5891 13.2969 30.6727 13.8539 30.1156C15.9473 28.0223 14.4649 24.4375 11.5 24.4375C10.7094 24.4375 10.0625 23.7906 10.0625 23C10.0625 22.2094 10.7094 21.5625 11.5 21.5625C14.4649 21.5625 15.9473 17.9777 13.8539 15.8844C13.2969 15.3273 13.2969 14.4109 13.8539 13.8539C14.411 13.2969 15.3274 13.2969 15.8844 13.8539C17.9778 15.9473 21.5625 14.4648 21.5625 11.5C21.5625 10.7094 22.2094 10.0625 23 10.0625ZM20.8438 23C22.0387 23 23 22.0387 23 20.8437C23 19.6488 22.0387 18.6875 20.8438 18.6875C19.6489 18.6875 18.6875 19.6488 18.6875 20.8437C18.6875 22.0387 19.6489 23 20.8438 23ZM27.3125 25.875C27.3125 25.0844 26.6657 24.4375 25.875 24.4375C25.0844 24.4375 24.4375 25.0844 24.4375 25.875C24.4375 26.6656 25.0844 27.3125 25.875 27.3125C26.6657 27.3125 27.3125 26.6656 27.3125 25.875Z" fill="#0B0A0C"/>
</svg>
