<svg width="40" height="36" viewBox="0 0 40 36" fill="none" xmlns="http://www.w3.org/2000/svg">
<path d="M24.4844 0.57185C26.5156 0.9781 27.8359 2.95466 27.4297 4.98591L27.25 5.87654C26.8359 7.96248 26.0703 9.94685 25 11.7515H36.25C38.3203 11.7515 40 13.4312 40 15.5015C40 17.4781 38.4766 19.0953 36.5391 19.2437C37.1406 19.9078 37.5 20.7906 37.5 21.7515C37.5 23.5797 36.1875 25.1031 34.4609 25.4312C34.8047 25.9937 35 26.6656 35 27.3765C35 29.0406 33.9141 30.4547 32.4141 30.939C32.4688 31.1969 32.5 31.4703 32.5 31.7515C32.5 33.8218 30.8203 35.5015 28.75 35.5015H23.0078C21.5234 35.5015 20.0781 35.064 18.8438 34.2437L15.8359 32.2359C13.75 30.8453 12.5 28.5015 12.5 25.9937V23.0015V19.2515V17.3062C12.5 15.025 13.5391 12.8765 15.3125 11.4469L15.8906 10.9859C17.9609 9.32966 19.375 7.00154 19.8906 4.40779L20.0703 3.51716C20.4766 1.48591 22.4531 0.1656 24.4844 0.57185ZM2.5 13.0015H7.5C8.88281 13.0015 10 14.1187 10 15.5015V33.0015C10 34.3843 8.88281 35.5015 7.5 35.5015H2.5C1.11719 35.5015 0 34.3843 0 33.0015V15.5015C0 14.1187 1.11719 13.0015 2.5 13.0015Z" fill="#0B0A0C"/>
</svg>
