<svg width="46" height="46" viewBox="0 0 46 46" fill="none" xmlns="http://www.w3.org/2000/svg">
<path d="M33.6554 7.78049C34.7784 6.65745 34.7784 4.83362 33.6554 3.71057C32.5323 2.58752 30.7085 2.58752 29.5854 3.71057L17.2499 16.0551L12.0929 10.8981C10.9698 9.77502 9.146 9.77502 8.02295 10.8981C6.8999 12.0211 6.8999 13.8449 8.02295 14.968L15.2104 22.1555C16.3335 23.2785 18.1573 23.2785 19.2804 22.1555L33.6554 7.78049ZM42.2804 19.2805C43.4034 18.1574 43.4034 16.3336 42.2804 15.2106C41.1573 14.0875 39.3335 14.0875 38.2104 15.2106L17.2499 36.1801L7.78037 26.7196C6.65732 25.5965 4.8335 25.5965 3.71045 26.7196C2.5874 27.8426 2.5874 29.6664 3.71045 30.7895L15.2104 42.2895C16.3335 43.4125 18.1573 43.4125 19.2804 42.2895L42.2804 19.2895V19.2805Z" fill="#0B0A0C"/>
</svg>
