<svg width="48" height="48" viewBox="0 0 48 48" fill="none" xmlns="http://www.w3.org/2000/svg">
<g clip-path="url(#clip0_1_2215)">
<path d="M24 48C37.2562 48 48 37.2562 48 24C48 10.7438 37.2562 0 24 0C10.7438 0 0 10.7438 0 24C0 37.2562 10.7438 48 24 48ZM24 12C25.2469 12 26.25 13.0031 26.25 14.25V24.75C26.25 25.9969 25.2469 27 24 27C22.7531 27 21.75 25.9969 21.75 24.75V14.25C21.75 13.0031 22.7531 12 24 12ZM27 33C27 34.6594 25.6594 36 24 36C22.3406 36 21 34.6594 21 33C21 31.3406 22.3406 30 24 30C25.6594 30 27 31.3406 27 33Z" fill="#0B0A0C"/>
</g>
<defs>
<clipPath id="clip0_1_2215">
<rect width="48" height="48" fill="white"/>
</clipPath>
</defs>
</svg>
