<svg width="36" height="48" viewBox="0 0 36 48" fill="none" xmlns="http://www.w3.org/2000/svg">
<path d="M15 0C16.6594 0 18 1.34062 18 3V13.5H12V3C12 1.34062 13.3406 0 15 0ZM3 6C3 4.34062 4.34062 3 6 3C7.65938 3 9 4.34062 9 6V13.5H3V6ZM21 6C21 4.34062 22.3406 3 24 3C25.6594 3 27 4.34062 27 6V15C27 16.6594 25.6594 18 24 18C22.3406 18 21 16.6594 21 15V6ZM30 12C30 10.3406 31.3406 9 33 9C34.6594 9 36 10.3406 36 12V18C36 19.6594 34.6594 21 33 21C31.3406 21 30 19.6594 30 18V12ZM21 20.25V20.1937C21.8813 20.7 22.9031 21 24 21C25.2375 21 26.3813 20.625 27.3375 19.9875C28.1531 22.3219 30.3844 24 33 24C34.0969 24 35.1188 23.7094 36 23.1937V24C36 28.9031 33.6469 33.2625 30 36V45C30 46.6594 28.6594 48 27 48H12C10.3406 48 9 46.6594 9 45V37.65C7.37813 36.9094 5.8875 35.8875 4.60312 34.6031L3.51562 33.5156C1.26562 31.2656 0 28.2094 0 25.0312V22.5C0 19.1906 2.69063 16.5 6 16.5H14.25C16.3219 16.5 18 18.1781 18 20.25C18 22.3219 16.3219 24 14.25 24H9C8.175 24 7.5 24.675 7.5 25.5C7.5 26.325 8.175 27 9 27H14.25C17.9813 27 21 23.9813 21 20.25Z" fill="#0B0A0C"/>
</svg>
