<svg width="40" height="46" viewBox="0 0 40 46" fill="none" xmlns="http://www.w3.org/2000/svg">
<g clip-path="url(#clip0_0_325)">
<path d="M30.9332 4.00699C31.4556 2.77613 31.066 1.33863 29.9948 0.548005C28.9236 -0.24262 27.4628 -0.170745 26.4624 0.709724L3.79826 20.8347C2.91294 21.6253 2.59422 22.8921 3.01032 24.0062C3.42642 25.1203 4.4888 25.875 5.66628 25.875H15.5376L8.72947 41.9929C8.20714 43.2238 8.59667 44.6613 9.66791 45.4519C10.7391 46.2425 12.1999 46.1707 13.2003 45.2902L35.8644 25.1652C36.7498 24.3746 37.0685 23.1078 36.6524 21.9937C36.2363 20.8796 35.1828 20.1339 33.9964 20.1339H24.1251L30.9332 4.00699Z" fill="#C2110E"/>
</g>
<defs>
<clipPath id="clip0_0_325">
<rect width="39.6622" height="46" fill="white"/>
</clipPath>
</defs>
</svg>
