<svg width="41" height="46" viewBox="0 0 41 46" fill="none" xmlns="http://www.w3.org/2000/svg">
<g clip-path="url(#clip0_0_330)">
<path d="M30.1875 4.3125C30.1875 1.93164 28.2559 0 25.875 0C23.4941 0 21.5625 1.93164 21.5625 4.3125C21.5625 6.69336 23.4941 8.625 25.875 8.625C28.2559 8.625 30.1875 6.69336 30.1875 4.3125ZM12.7309 15.7676C13.6203 14.8781 14.8332 14.375 16.1 14.375C16.2707 14.375 16.4414 14.384 16.6031 14.402L13.8 22.8203C12.9645 25.3359 13.9527 28.1031 16.2078 29.5137L23.9523 34.3563L21.6703 42.3344C21.2301 43.8617 22.1195 45.452 23.6469 45.8922C25.1742 46.3324 26.7645 45.443 27.2047 43.9156L29.7832 34.8953C30.3133 33.0445 29.5496 31.068 27.9234 30.0527L22.8203 26.8633L25.5965 19.4602L26.0547 20.5652C27.4023 23.7816 30.5379 25.875 34.0238 25.875H35.9375C37.5277 25.875 38.8125 24.5902 38.8125 23C38.8125 21.4098 37.5277 20.125 35.9375 20.125H34.0238C32.8648 20.125 31.8137 19.4242 31.3734 18.3551L30.8074 17.0074C29.4957 13.8539 26.8453 11.4461 23.575 10.4398L19.1996 9.09219C18.2023 8.78672 17.1602 8.625 16.109 8.625C13.3238 8.625 10.6465 9.73008 8.67891 11.7066L6.59453 13.782C5.47148 14.9051 5.47148 16.7289 6.59453 17.852C7.71758 18.975 9.54141 18.975 10.6645 17.852L12.7398 15.7766L12.7309 15.7676ZM9.63125 31.625H4.3125C2.72227 31.625 1.4375 32.9098 1.4375 34.5C1.4375 36.0902 2.72227 37.375 4.3125 37.375H10.5656C12.2727 37.375 13.818 36.3688 14.5098 34.8145L15.543 32.4875L14.6895 31.9484C13.1172 30.9691 11.9492 29.5406 11.2844 27.9145L9.63125 31.625Z" fill="#0B0A0C"/>
</g>
<defs>
<clipPath id="clip0_0_330">
<rect width="40.25" height="46" fill="white"/>
</clipPath>
</defs>
</svg>
